# xmcd
#
# Track frame offsets: 
#        150
#        16695
#        32724
#
# Disc length: 655 seconds
#
# Revision: 0
# Processed by: cddbd v1.5PL3 Copyright (c) Steve Scherf et al.
# Submitted via: ExactAudioCopy v0.95a5
#
DISCID=15028d03
DTITLE=Emma Bunton - Take My Breath Away [CD Single)
DYEAR=2001
DGENRE=Rock
TTITLE0=Take My Breath Away
TTITLE1=Close Encounter
TTITLE2=Take My Breath Away (Tin Tin Out Mix)
EXTD=
EXTT0=
EXTT1=
EXTT2=
PLAYORDER=
